# xmcd
#
# Track frame offsets: 
#        150
#        32130
#        62012
#        93930
#        116105
#        139057
#        158320
#        181505
#
# Disc length: 2737 seconds
#
# Revision: 2
# Processed by: cddbd v1.5.2PL0 Copyright (c) Steve Scherf et al.
# Submitted via: ExactAudioCopyFreeDBPlugin 1.0
#
DISCID=5a0aaf08
DTITLE=Art Tatum - The Tatum Group Masterpieces - Volume 3
DYEAR=1955
DGENRE=Jazz
TTITLE0=What Is This Thing Called Love
TTITLE1=I´ll Never Be The Same
TTITLE2=Makin' Whoopee
TTITLE3=Hallelujah
TTITLE4=Perdido
TTITLE5=More Than You Know
TTITLE6=How High The Moon
TTITLE7=Hallelujah [alternate take]
EXTD=
EXTT0=
EXTT1=
EXTT2=
EXTT3=
EXTT4=
EXTT5=
EXTT6=
EXTT7=
PLAYORDER=
